<svg id="Layer_1" data-name="Layer 1" xmlns="http://www.w3.org/2000/svg" width="251.03" height="148.41" viewBox="0 0 251.03 148.41">
  <defs>
    <style>
      .cls-1 {
        fill: #ffffff;
      }
    </style>
  </defs>
  <title>Krishnan Vignesh Signature 2</title>
  <g>
    <path class="cls-1" d="M156,74.75a.79.79,0,0,1-.73-.41,20.27,20.27,0,0,0-6.56-7,20.62,20.62,0,0,0-7.47-3.2,19.49,19.49,0,0,0-2.7-.45l-2.46-.21q-1.49,5.75-2.38,9.56c-.6,2.54-1.07,4.59-1.39,6.15s-.54,2.7-.62,3.44-.12,1.22-.12,1.44a.88.88,0,0,1-.82.9.73.73,0,0,1-.82-.82q-.25-2.62,4.51-20.67a4,4,0,0,0-.62,0c-.19,0-.37,0-.53,0a.57.57,0,0,0-.25,0,.49.49,0,0,1-.24,0l-.9.16a5.7,5.7,0,0,1-.58,0c-.27,0-.46-.23-.57-.61a.76.76,0,0,1,.49-1,16.32,16.32,0,0,1,1.72-.24q.41-.16,1-.45a9.09,9.09,0,0,0,1.23-.78l2.7-9.93q1.48-5.49,2.91-10.66c1-3.44,1.83-6.5,2.63-9.18s1.42-4.84,1.88-6.48.7-2.48.7-2.54c.22-.49.55-.65,1-.49.6.11.8.44.58,1,0,.06-.24.9-.7,2.54s-1.08,3.81-1.84,6.48-1.64,5.74-2.63,9.19-2,7-3,10.66c-.44,1.42-.83,2.76-1.19,4s-.67,2.49-.94,3.69c1.09-.92,2.38-2.1,3.85-3.52s3.14-3.14,5-5.17q2.22-2.46,4.43-5t4.18-5q2-2.46,3.61-4.72t2.79-4.14a27.58,27.58,0,0,0,1.35-2.42q.45-.95.66-1.47a2.84,2.84,0,0,0,.2-.95l1.56-.49a3.75,3.75,0,0,1-.12,1.76,16.9,16.9,0,0,1-2.09,4.06q-1.16,1.89-2.79,4.18c-1.09,1.54-2.3,3.15-3.61,4.84s-2.72,3.42-4.22,5.17-3,3.47-4.55,5.16c-.71.83-1.52,1.7-2.42,2.63s-1.83,1.87-2.79,2.83-1.94,1.87-3,2.74-2,1.64-2.83,2.3v.16c.71.06,1.46.14,2.25.25s1.66.25,2.59.41a24.13,24.13,0,0,1,8.12,3.36,23,23,0,0,1,4,3.41,21.31,21.31,0,0,1,3.12,4.3.78.78,0,0,1-.25,1.15A1,1,0,0,1,156,74.75Z" transform="translate(-129.9 -8.25)"/>
    <path class="cls-1" d="M166.89,65.48a4.24,4.24,0,0,1-.74-.08,1.62,1.62,0,0,1-.9-.49,2.41,2.41,0,0,1-.45-.61,2.11,2.11,0,0,1-.21-1,2.88,2.88,0,0,1,.54-1.56c.35-.54.83-1.2,1.43-2a25.43,25.43,0,0,0,1.56-2.22l.24-.49a.68.68,0,0,0,.09-.33v-.25a.54.54,0,0,1-.25-.08,2.29,2.29,0,0,0-1-.16A8.73,8.73,0,0,1,162.13,55a3.7,3.7,0,0,1-1.64-3.2,6.73,6.73,0,0,1,2-4.43,5.7,5.7,0,0,1,4.18-2.13,2.76,2.76,0,0,1,1.68.41,2.12,2.12,0,0,1,.7.82,2.44,2.44,0,0,1,.21,1.48,9,9,0,0,1-.41,1.6,12.34,12.34,0,0,1-.66,1.47,7.79,7.79,0,0,1-.62,1c-.27.49-.54,1-.82,1.39a5.75,5.75,0,0,1-.82,1.07,8.07,8.07,0,0,0,1.32.08,12.29,12.29,0,0,1,1.35.12,1.64,1.64,0,0,1,1.35,1,2.42,2.42,0,0,1-.24,2.33,26.88,26.88,0,0,1-1.81,2.67c-.33.38-.68.83-1.06,1.35a2.35,2.35,0,0,0-.58,1.19.57.57,0,0,0,.17.41c0,.11.19.16.41.16q2.77-.73,7.13-5.08c.6-.6,1.13-1.15,1.6-1.64s.89-.95,1.27-1.39.82-1,1.15-1.4a.57.57,0,0,1,.53-.33,1.1,1.1,0,0,1,.62.17.68.68,0,0,1,.28.53.73.73,0,0,1-.2.62c-.06.11-.48.64-1.27,1.6s-1.78,2-2.95,3.19a33.64,33.64,0,0,1-3.86,3.32,11.55,11.55,0,0,1-4,2.05h-.24Zm-.25-18.61a4.11,4.11,0,0,0-2.95,1.64,5.73,5.73,0,0,0-1.15,1.64,4.07,4.07,0,0,0-.41,1.64,2.27,2.27,0,0,0,1,1.89,1.39,1.39,0,0,0,.45.28,2.92,2.92,0,0,0,.61.21,12.17,12.17,0,0,1,.74-1.15l1.23-1.8a13.4,13.4,0,0,0,1.27-2.71,2.13,2.13,0,0,0,.12-1.31A1,1,0,0,0,166.64,46.87Z" transform="translate(-129.9 -8.25)"/>
    <path class="cls-1" d="M191.9,59.83a28,28,0,0,1-5,4.14,13,13,0,0,1-6.24,1.92h-.73a3.72,3.72,0,0,1-3.28-1.39,4,4,0,0,1-.62-2.38,13.48,13.48,0,0,1,.45-2.95,20.45,20.45,0,0,1,1.11-3.12c.46-1,.89-2,1.27-2.87l1-2.13q.16-.73,1-.57a.81.81,0,0,1,.57,1.06c-.11.28-.24.61-.41,1s-.35.82-.57,1.31c-.38.77-.79,1.64-1.23,2.62a24.93,24.93,0,0,0-1.07,2.87,8.51,8.51,0,0,0-.49,2.83,3.23,3.23,0,0,0,.33,1.36,2.65,2.65,0,0,0,2.54.73A14.68,14.68,0,0,0,186,62.37a24.11,24.11,0,0,0,4.71-3.69,40,40,0,0,0,2.87-3,12.46,12.46,0,0,0,1.15-1.44.72.72,0,0,1,.53-.29.73.73,0,0,1,.62.21.7.7,0,0,1,.08,1.15,13,13,0,0,1-1.15,1.43Q193.7,58.1,191.9,59.83Zm-9-13.29a2.27,2.27,0,0,1-1.63-.69,2.35,2.35,0,0,1,0-3.37,2.27,2.27,0,0,1,1.63-.69,2.35,2.35,0,0,1,1.71.69,2.35,2.35,0,0,1,0,3.37A2.35,2.35,0,0,1,182.92,46.54Zm0-3.11c-.44,0-.66.24-.66.74s.22.73.66.73a.74.74,0,1,0,0-1.47Z" transform="translate(-129.9 -8.25)"/>
    <path class="cls-1" d="M214.28,54.17a.74.74,0,0,1,.33,1.15c-.6,1-1.32,2-2.17,3.19s-1.79,2.32-2.83,3.49-2.17,2.35-3.4,3.53a41.09,41.09,0,0,1-3.82,3.23c-.6.44-1.2.87-1.8,1.28s-1.2.8-1.8,1.18a8.31,8.31,0,0,1-1.32,4.68,6.2,6.2,0,0,1-2.29,2,7.64,7.64,0,0,1-2.38.41,10.57,10.57,0,0,1-3.69-.74A17.49,17.49,0,0,1,186,75.86a19.65,19.65,0,0,1-2.83-2.34.83.83,0,0,1-.16-1,.85.85,0,0,1,1-.41,15.42,15.42,0,0,0,9-.09c.66-.21,1.34-.47,2-.77s1.43-.65,2.14-1c-.06-.6-.15-1.34-.29-2.21s-.29-1.81-.45-2.79a84.73,84.73,0,0,1-1.15-8.94q-.24-3.77,1.15-5.17a2.7,2.7,0,0,1,.82-.53,2.34,2.34,0,0,1,1.31,0q.83.16.66.9c-.11.55-.41.77-.91.66a.67.67,0,0,0-.45,0,2.32,2.32,0,0,1-.28.16,3.08,3.08,0,0,0-.5,1.23A13.54,13.54,0,0,0,197,57q.17,1.89.45,3.93c.19,1.37.4,2.71.62,4q.16,1.23.33,2.34c.1.74.21,1.41.32,2l1.36-.86a11.5,11.5,0,0,0,1.35-1c1.26-1,2.47-2,3.65-3.15s2.27-2.26,3.28-3.41,1.93-2.28,2.75-3.4,1.53-2.15,2.13-3.07C213.55,54,213.9,53.9,214.28,54.17ZM194.52,76.31a3.14,3.14,0,0,0,1.85-1.68,8.92,8.92,0,0,0,.69-2.5,27.76,27.76,0,0,1-3.69,1.47,16.84,16.84,0,0,1-6.72.74,7.92,7.92,0,0,0,1.52.94l1.51.7Q192.73,77.13,194.52,76.31Z" transform="translate(-129.9 -8.25)"/>
    <path class="cls-1" d="M226.42,63.35a2.32,2.32,0,0,0,2.38.62,10.38,10.38,0,0,0,2.87-1.31,21,21,0,0,0,2.75-2.1c.84-.76,1.48-1.39,1.92-1.88a38,38,0,0,0,2.87-3,12.46,12.46,0,0,0,1.15-1.44.72.72,0,0,1,.53-.29.73.73,0,0,1,.62.21.7.7,0,0,1,.08,1.15,13,13,0,0,1-1.15,1.43,41.58,41.58,0,0,1-2.95,3.08c-.55.54-1.33,1.27-2.34,2.17a19.75,19.75,0,0,1-3.28,2.38,9.81,9.81,0,0,1-3.52,1.27,3.41,3.41,0,0,1-3.08-1.15,4.88,4.88,0,0,1-1.35-3.61,28.82,28.82,0,0,1,.29-3.77,5.13,5.13,0,0,0,.16-1.07q-2.55.5-6.31,4.92a21.74,21.74,0,0,0-1.6,1.93c-.47.63-.89,1.19-1.27,1.68s-.82,1.15-1.15,1.64a.74.74,0,0,1-.66.41.91.91,0,0,1-.65-.33,5,5,0,0,1-.37-.65,3.32,3.32,0,0,1-.25-1.27c0-.58,0-1.31,0-2.22a28,28,0,0,1,.37-3.4c.27-1.8.66-3.83,1.15-6.07s1.09-4.64,1.8-7.21q1.15-4.18,2.46-8.28c.88-2.74,1.76-5.36,2.67-7.88s1.81-4.86,2.74-7,1.83-4.13,2.71-5.82a31.3,31.3,0,0,1,3.69-5.82q2.13-2.46,3.94-2.38a2.21,2.21,0,0,1,2.13,1.39q.9,2.14-.66,7.06c-.44,1.42-1,3-1.76,4.75s-1.57,3.61-2.5,5.58q-1.32,2.7-2.79,5.49t-3,5.37c-1,1.72-2,3.34-3,4.84s-1.91,2.83-2.78,4a24.19,24.19,0,0,1-2,2.42,4.54,4.54,0,0,1-1.36,1c-.43,1.7-.79,3.28-1.06,4.76s-.52,2.84-.74,4.1-.27,2.18-.33,3-.08,1.39-.08,1.88c.82-1.14,1.83-2.46,3-3.93q4.92-5.58,8.2-5.58a1.56,1.56,0,0,1,.82.33,1.42,1.42,0,0,1,.29,1c0,.41-.1,1-.2,1.68a23.12,23.12,0,0,0-.33,3.15A3.69,3.69,0,0,0,226.42,63.35Zm-9.84-15.9c.33-.39.74-.88,1.23-1.48s1.07-1.37,1.72-2.3q1.56-2.37,3.32-5.29t3.49-6q2-3.69,3.56-7.06c1.07-2.24,1.94-4.27,2.63-6.1a42.23,42.23,0,0,0,1.52-4.84,12.41,12.41,0,0,0,.41-3.32c-.11-.6-.26-.95-.46-1a1.25,1.25,0,0,0-.45-.12h-.08a2.34,2.34,0,0,0-.74.2,4.43,4.43,0,0,0-1.23,1,22,22,0,0,0-1.76,2.21,30.59,30.59,0,0,0-2.25,3.9q-1.32,2.53-2.71,5.78c-.93,2.16-1.84,4.48-2.75,7s-1.77,5.08-2.62,7.79-1.63,5.42-2.34,8.16Z" transform="translate(-129.9 -8.25)"/>
    <path class="cls-1" d="M250.77,59c-.27,2.24-.15,3.66.37,4.26a1.72,1.72,0,0,0,2.13.37,10.55,10.55,0,0,0,3-2c1.12-1,2.17-2,3.15-3a38,38,0,0,0,2.87-3,12.46,12.46,0,0,0,1.15-1.44A.72.72,0,0,1,264,54a.71.71,0,0,1,.61.21c.44.33.46.71.08,1.15a13,13,0,0,1-1.15,1.43,41.58,41.58,0,0,1-2.95,3.08c-.38.43-.93,1-1.64,1.64s-1.46,1.28-2.25,1.88a23.06,23.06,0,0,1-2.38,1.6,4.22,4.22,0,0,1-2.09.7h-.58a1.91,1.91,0,0,1-2-1.35,9.23,9.23,0,0,1-.5-3.16,22.43,22.43,0,0,1,.29-3.57q.28-1.76.45-2.58c.17-.6.32-1.22.45-1.85s.26-1.18.37-1.68a2.64,2.64,0,0,0,0-.82c0-.22,0-.38,0-.49a1.46,1.46,0,0,1-.08-.41.45.45,0,0,0-.57-.08,5.18,5.18,0,0,0-3,1.68,22.76,22.76,0,0,0-2.83,3.49q-1.31,2-2.37,4T240.36,62a.68.68,0,0,1-1,.41c-.55-.11-.72-.44-.5-1l2.71-10.17c.11-.49.44-.68,1-.58s.69.44.58,1l-.9,3.2q4-6.4,7.62-6.89a1.91,1.91,0,0,1,1.27.08,3.25,3.25,0,0,1,.7.49,3,3,0,0,1,.61,2.75,30.88,30.88,0,0,1-.94,4.06c-.11.6-.24,1.22-.41,1.84A12.91,12.91,0,0,0,250.77,59Z" transform="translate(-129.9 -8.25)"/>
    <path class="cls-1" d="M286,54.17c.38.44.41.82.08,1.15-.05.11-.48.64-1.27,1.6s-1.77,2-2.95,3.19A34.4,34.4,0,0,1,278,63.43a11.64,11.64,0,0,1-4,2.05,1.51,1.51,0,0,1-.53.09h-.45a2.17,2.17,0,0,1-1.64-.58,2.69,2.69,0,0,1-.66-2.33,27.18,27.18,0,0,1,.49-3l.33-1.31-1.23,1.31c-.49.6-1.07,1.23-1.72,1.89a17.69,17.69,0,0,1-2.17,1.84,14.73,14.73,0,0,1-2.55,1.48,6.73,6.73,0,0,1-2.83.61c-1,.06-1.7-.17-2-.69a4.44,4.44,0,0,1-.54-1.19,6.61,6.61,0,0,1,.58-2.58,20,20,0,0,1,3.11-4.88q.66-.9,1.44-1.77c.52-.57,1-1.1,1.43-1.6a10,10,0,0,1,1.72-1.39l.66-.33a2.9,2.9,0,0,1,2.71.91,3.8,3.8,0,0,1,.57,1.39,4.47,4.47,0,0,1-.41,2.62.72.72,0,0,1-1.07.41c-.54-.21-.71-.57-.49-1.06.49-1,.55-1.81.17-2.3a1,1,0,0,0-1.15-.33,7.47,7.47,0,0,0-1.64,1.4,34.93,34.93,0,0,0-2.87,3.36,20.17,20.17,0,0,0-2.54,4,4.86,4.86,0,0,0-.58,2.09.83.83,0,0,0,.17.24c.05.06.27.08.65.08a5.78,5.78,0,0,0,2.42-.53A9.85,9.85,0,0,0,265.65,62a18.5,18.5,0,0,0,1.89-1.72c.57-.6,1.11-1.18,1.6-1.73q1.14-1.14,1.89-1.8a1.31,1.31,0,0,1,1.47-.33c.66.17.93.74.82,1.72l-.41,2c-.11.44-.2.86-.28,1.27s-.16.81-.21,1.19a2.59,2.59,0,0,0,0,1,.5.5,0,0,0,.25.32c.1.17.43.17,1,0q2.79-.65,7.22-5.08c.6-.6,1.13-1.15,1.59-1.64s.89-.95,1.28-1.39.82-1,1.14-1.4a.58.58,0,0,1,.54-.33A1.07,1.07,0,0,1,286,54.17Z" transform="translate(-129.9 -8.25)"/>
    <path class="cls-1" d="M295.3,59c-.28,2.24-.15,3.66.37,4.26a1.72,1.72,0,0,0,2.13.37,10.65,10.65,0,0,0,3-2c1.12-1,2.18-2,3.16-3a40,40,0,0,0,2.87-3A14,14,0,0,0,308,54.25a.7.7,0,0,1,.53-.29.73.73,0,0,1,.62.21.7.7,0,0,1,.08,1.15,14.78,14.78,0,0,1-1.15,1.43q-1.15,1.35-2.95,3.08c-.39.43-.93,1-1.64,1.64s-1.47,1.28-2.26,1.88a21.09,21.09,0,0,1-2.38,1.6,4.22,4.22,0,0,1-2.09.7h-.57a1.92,1.92,0,0,1-2-1.35,9.24,9.24,0,0,1-.49-3.16,21.32,21.32,0,0,1,.29-3.57q.29-1.76.45-2.58c.16-.6.31-1.22.45-1.85s.26-1.18.37-1.68a3,3,0,0,0,0-.82,3.74,3.74,0,0,1,0-.49,1.18,1.18,0,0,1-.08-.41.47.47,0,0,0-.58-.08,5.19,5.19,0,0,0-3,1.68,22.18,22.18,0,0,0-2.83,3.49,44.32,44.32,0,0,0-2.38,4q-1.06,2-1.56,3.24a.67.67,0,0,1-1,.41c-.55-.11-.71-.44-.49-1l2.7-10.17c.11-.49.44-.68,1-.58s.68.44.57,1l-.9,3.2q4-6.4,7.63-6.89a1.92,1.92,0,0,1,1.27.08,2.93,2.93,0,0,1,.69.49,3.06,3.06,0,0,1,.62,2.75A32.57,32.57,0,0,1,296,55.4c-.11.6-.25,1.22-.41,1.84A10.46,10.46,0,0,0,295.3,59Z" transform="translate(-129.9 -8.25)"/>
  </g>
  <g>
    <path class="cls-1" d="M185.14,127.3a5,5,0,0,1-4.34-2.22q-4.35-5.49-1.4-25.09.49-3.52,1.15-6.8t1.19-5.82q.54-2.55,1.27-5.58a.76.76,0,0,1,1.07-.58c.49.12.68.44.57,1-.49,2-.93,3.87-1.31,5.53s-.78,3.59-1.19,5.74-.78,4.42-1.11,6.77a90.08,90.08,0,0,0-1.06,10,57.36,57.36,0,0,0,.08,7,18.86,18.86,0,0,0,.82,4.47,8.34,8.34,0,0,0,1.23,2.46,3.45,3.45,0,0,0,3,1.56,2.68,2.68,0,0,1,.33-.25c.11-.11.23-.24.37-.41s.31-.38.53-.65c.28-.44.59-1,.95-1.64s.75-1.45,1.19-2.38c.76-1.7,1.61-3.66,2.54-5.91s1.88-4.61,2.87-7.13q2.63-6.56,5.57-13.49t6.07-12.67a58.56,58.56,0,0,1,3.32-5.49A34.57,34.57,0,0,1,212,71.7c2.4-2.57,4.76-3.69,7.05-3.36a.74.74,0,0,1,.66,1c-.11.54-.41.76-.9.65q-4.92-.74-11.89,11.89a124.84,124.84,0,0,0-6,12.59q-2.86,6.93-5.49,13.41-1.56,3.93-3,7.38t-2.66,6.06a29.46,29.46,0,0,1-2.63,4.6A2.85,2.85,0,0,1,185.14,127.3Z" transform="translate(-129.9 -8.25)"/>
    <path class="cls-1" d="M229.1,107.54a28.08,28.08,0,0,1-5,4.14,12.93,12.93,0,0,1-6.23,1.92h-.74a3.74,3.74,0,0,1-3.28-1.39,4,4,0,0,1-.61-2.38,13.48,13.48,0,0,1,.45-3,19.43,19.43,0,0,1,1.11-3.12l1.27-2.87,1-2.13q.17-.74,1-.57a.81.81,0,0,1,.57,1.06c-.11.28-.25.61-.41,1s-.36.82-.57,1.31c-.39.77-.8,1.64-1.23,2.62a23.2,23.2,0,0,0-1.07,2.87,8.25,8.25,0,0,0-.49,2.83,3.23,3.23,0,0,0,.33,1.36c.43.6,1.28.85,2.54.73a14.63,14.63,0,0,0,5.53-1.88,23.87,23.87,0,0,0,4.72-3.69,40,40,0,0,0,2.87-3A14,14,0,0,0,232,102a.68.68,0,0,1,.53-.29.71.71,0,0,1,.61.21.69.69,0,0,1,.09,1.15,14.78,14.78,0,0,1-1.15,1.43Q230.9,105.81,229.1,107.54Zm-9-13.29a2.26,2.26,0,0,1-1.63-.69,2.35,2.35,0,0,1,0-3.37,2.26,2.26,0,0,1,1.63-.69,2.39,2.39,0,0,1,1.71.69,2.35,2.35,0,0,1,0,3.37A2.39,2.39,0,0,1,220.12,94.25Zm0-3.11c-.44,0-.66.24-.66.74s.22.73.66.73a.74.74,0,0,0,0-1.47Z" transform="translate(-129.9 -8.25)"/>
    <path class="cls-1" d="M256.07,121c.49.28.6.63.33,1.07a.71.71,0,0,1-1.06.41,27,27,0,0,0-10.09-2.87,15.12,15.12,0,0,0-2.67-.08c-.84,0-1.73.14-2.66.24q-.4,2.63-.9,5.54t-1.15,5.78c-.77,3.28-1.53,6.26-2.3,8.94a61.23,61.23,0,0,1-2.46,7.13c-2.18,5.09-4.54,8.12-7.05,9.11a5.43,5.43,0,0,1-1.88.41c-1.75,0-3.56-1-5.42-3q-4-4.35-3.11-11.4a24.25,24.25,0,0,1,1.8-6.47,28,28,0,0,1,3.69-6.24,30.2,30.2,0,0,1,6.6-6.52,27.7,27.7,0,0,1,8-4,17.09,17.09,0,0,1,2.78-.74c.22-1.48.4-2.8.54-4s.26-2.17.37-3c.22-1.75.35-3.2.41-4.35s.11-2,.16-2.7l-1.06,1.39c-.55.77-1.15,1.57-1.81,2.42a22.37,22.37,0,0,1-2.17,2.42,13.21,13.21,0,0,1-2.54,1.93,5.76,5.76,0,0,1-2.91.77c-1.1.06-1.78-.17-2-.69a3.32,3.32,0,0,1,0-3.77,22.34,22.34,0,0,1,3.07-4.88c.49-.6,1-1.19,1.52-1.77s1-1.1,1.43-1.6a8.67,8.67,0,0,1,1.64-1.39l.66-.33a3,3,0,0,1,2.79.91,7.92,7.92,0,0,1,.53,1.14,3,3,0,0,1-.12,2h.08a4.18,4.18,0,0,1,.7-.7,1.2,1.2,0,0,1,1.1-.2.83.83,0,0,1,.66.7,8.42,8.42,0,0,1,.08,1.18c0,1.1-.11,2.89-.33,5.38s-.57,5.45-1.06,8.89a23.75,23.75,0,0,1,5.16-.08,25.41,25.41,0,0,1,5.33.94A31.48,31.48,0,0,1,256.07,121Zm-19.18,6.89c.27-1.42.51-2.79.73-4.1s.41-2.57.58-3.77c-.33.11-.66.21-1,.29s-.65.18-1,.29a25.9,25.9,0,0,0-7.59,3.77,30.19,30.19,0,0,0-9.63,12,23.7,23.7,0,0,0-1.72,6q-.73,6.31,2.62,10.08c2.19,2.35,4.21,3,6.07,2.05q3-1.64,5.82-8.48A105.64,105.64,0,0,0,236.89,127.87Zm.73-23.12a2.48,2.48,0,0,1,.17-.29,1.88,1.88,0,0,0,.16-.29.67.67,0,0,1-.33-.08.71.71,0,0,1-.41-1.06c.5-1.1.52-1.86.09-2.3a.92.92,0,0,0-1.07-.33,7.72,7.72,0,0,0-1.64,1.4,34.93,34.93,0,0,0-2.87,3.36,22.36,22.36,0,0,0-2.58,4,3.65,3.65,0,0,0-.54,2.09.25.25,0,0,0,.13.24,1.56,1.56,0,0,0,.69.08,4.55,4.55,0,0,0,2.38-.69,13.4,13.4,0,0,0,2.22-1.72,19.69,19.69,0,0,0,2-2.22C236.58,106.13,237.13,105.41,237.62,104.75Z" transform="translate(-129.9 -8.25)"/>
    <path class="cls-1" d="M260.58,106.72c-.27,2.24-.15,3.66.37,4.26a1.72,1.72,0,0,0,2.13.37,10.55,10.55,0,0,0,3-2c1.12-1,2.17-2,3.15-3a38,38,0,0,0,2.87-3,12.46,12.46,0,0,0,1.15-1.44.72.72,0,0,1,.54-.29.71.71,0,0,1,.61.21c.44.33.46.71.08,1.15a13,13,0,0,1-1.15,1.43,41.58,41.58,0,0,1-2.95,3.08c-.38.43-.93,1-1.64,1.64s-1.46,1.28-2.25,1.88a23.06,23.06,0,0,1-2.38,1.6,4.22,4.22,0,0,1-2.09.7h-.58a1.9,1.9,0,0,1-2-1.35,9.23,9.23,0,0,1-.5-3.16,22.43,22.43,0,0,1,.29-3.57q.29-1.75.45-2.58c.17-.6.32-1.22.45-1.85s.26-1.18.37-1.68a2.64,2.64,0,0,0,0-.82c0-.22,0-.38,0-.49a1.46,1.46,0,0,1-.08-.41.45.45,0,0,0-.57-.08,5.18,5.18,0,0,0-3,1.68,22.76,22.76,0,0,0-2.83,3.49q-1.31,2-2.37,4t-1.56,3.24a.68.68,0,0,1-1,.41c-.54-.11-.71-.44-.49-1L251.4,99c.11-.49.44-.68,1-.58s.68.44.58,1l-.91,3.2q4-6.41,7.63-6.89a1.91,1.91,0,0,1,1.27.08,3.25,3.25,0,0,1,.7.49,3.06,3.06,0,0,1,.61,2.75,30.88,30.88,0,0,1-.94,4.06c-.11.6-.25,1.22-.41,1.84A12.91,12.91,0,0,0,260.58,106.72Z" transform="translate(-129.9 -8.25)"/>
    <path class="cls-1" d="M278,113.11a8.92,8.92,0,0,1-4.92-1.1,4.45,4.45,0,0,1-2-2.79,6.46,6.46,0,0,1,.41-3.73,12.93,12.93,0,0,1,2.33-3.86,16.12,16.12,0,0,1,3.65-3.11,11.21,11.21,0,0,1,4.47-1.64,3.84,3.84,0,0,1,2.13.41,1,1,0,0,1,.5,1,3,3,0,0,1-.58,1.31c-.33.47-.65.92-1,1.36a17.37,17.37,0,0,1-2,2.13,21.83,21.83,0,0,1-2.62,2.09,20.94,20.94,0,0,1-2.79,1.6,7.44,7.44,0,0,1-2.63.74h-.08a3.16,3.16,0,0,0,.86,2.79q1.11,1.14,4.14,1.14a7.76,7.76,0,0,0,4.27-1.47,26.52,26.52,0,0,0,4.26-3.61,38,38,0,0,0,2.87-3,12.46,12.46,0,0,0,1.15-1.44.72.72,0,0,1,.53-.29.73.73,0,0,1,.62.21.7.7,0,0,1,.08,1.15,13,13,0,0,1-1.15,1.43,41.58,41.58,0,0,1-2.95,3.08,27.69,27.69,0,0,1-5,4A9,9,0,0,1,278,113.11Zm3.93-14.68a9.34,9.34,0,0,0-2.54.95,12.48,12.48,0,0,0-2.5,1.76,15,15,0,0,0-2.09,2.3,11.41,11.41,0,0,0-1.4,2.46,11.84,11.84,0,0,0,1.4-.45,9.84,9.84,0,0,0,1.64-.87,16.46,16.46,0,0,0,2.34-1.64,22.22,22.22,0,0,0,2.09-2,10.12,10.12,0,0,0,1.27-1.73,2.3,2.3,0,0,0,.28-.73.47.47,0,0,1-.16,0A.77.77,0,0,0,281.9,98.43Z" transform="translate(-129.9 -8.25)"/>
    <path class="cls-1" d="M310,101.88a.74.74,0,0,1,.32,1.15c-.6,1-1.32,2-2.17,3.19s-1.79,2.32-2.83,3.49-2.17,2.35-3.4,3.53a42.32,42.32,0,0,1-3.81,3.23c-.61.44-1.21.87-1.81,1.28s-1.2.8-1.8,1.18a8.39,8.39,0,0,1-1.31,4.68,6.3,6.3,0,0,1-2.3,2,7.59,7.59,0,0,1-2.38.41,10.57,10.57,0,0,1-3.69-.74,17.49,17.49,0,0,1-3.16-1.68,19,19,0,0,1-2.82-2.34.81.81,0,0,1-.17-1,.86.86,0,0,1,1-.41,15.42,15.42,0,0,0,9-.09c.65-.21,1.33-.47,2.05-.77s1.42-.65,2.13-1c-.06-.6-.15-1.34-.29-2.21s-.29-1.81-.45-2.79a87.45,87.45,0,0,1-1.15-8.94q-.24-3.77,1.15-5.17a2.7,2.7,0,0,1,.82-.53,2.34,2.34,0,0,1,1.31,0q.82.17.66.9t-.9.66a.69.69,0,0,0-.46,0,2.32,2.32,0,0,1-.28.16,3,3,0,0,0-.49,1.23,13,13,0,0,0-.09,3.53q.17,1.89.45,3.93c.2,1.37.4,2.71.62,4q.17,1.23.33,2.34t.33,2l1.35-.86a11.5,11.5,0,0,0,1.35-1c1.26-1,2.47-2,3.65-3.15s2.27-2.26,3.28-3.41,1.93-2.28,2.75-3.4,1.53-2.15,2.13-3.07C309.21,101.69,309.56,101.61,310,101.88ZM290.18,124a3.14,3.14,0,0,0,1.85-1.68,8.94,8.94,0,0,0,.7-2.5,28.88,28.88,0,0,1-3.69,1.47,16.91,16.91,0,0,1-6.73.74,7.92,7.92,0,0,0,1.52.94c.52.25,1,.48,1.52.7Q288.38,124.85,290.18,124Z" transform="translate(-129.9 -8.25)"/>
    <path class="cls-1" d="M380.14,100.65q.5,0,.57.33a.72.72,0,0,1-.16,1.15,24.62,24.62,0,0,1-11.73,4.34,55.86,55.86,0,0,1-6.07.16,48.57,48.57,0,0,1-6.23-.57,36,36,0,0,0-10-.37,40.22,40.22,0,0,0-7.91,1.72,39.25,39.25,0,0,0-6.24,2.67q-2.7,1.47-4.79,2.46a11.26,11.26,0,0,1-3.73,1.11,3.47,3.47,0,0,1-3-1.44,5,5,0,0,1-1-1.72,7.21,7.21,0,0,1-.37-2,15.46,15.46,0,0,1,0-1.93,17.75,17.75,0,0,1,.25-1.76,4.53,4.53,0,0,0,.16-1.07c-1.69.33-3.8,2-6.31,4.92a23.63,23.63,0,0,0-1.6,1.93c-.47.63-.89,1.19-1.27,1.68s-.82,1.15-1.15,1.64a.72.72,0,0,1-.66.41,1,1,0,0,1-.65-.33,6.5,6.5,0,0,1-.37-.65,3.32,3.32,0,0,1-.25-1.27c0-.58,0-1.31,0-2.22a28,28,0,0,1,.37-3.4c.28-1.8.66-3.83,1.15-6.07s1.09-4.64,1.8-7.21q1.16-4.18,2.46-8.28c.88-2.74,1.77-5.36,2.67-7.88S318,72.17,319,70s1.83-4.13,2.7-5.82a31.64,31.64,0,0,1,3.69-5.82q2.13-2.46,3.94-2.38a2.21,2.21,0,0,1,2.13,1.39q.9,2.15-.66,7.06A48.44,48.44,0,0,1,329,69.16q-1.11,2.63-2.5,5.58c-.88,1.8-1.8,3.63-2.79,5.49s-2,3.65-3,5.37-2,3.34-3,4.84-1.92,2.83-2.79,4a24.19,24.19,0,0,1-2,2.42,4.64,4.64,0,0,1-1.35,1c-.44,1.7-.8,3.28-1.07,4.76s-.52,2.84-.74,4.1-.27,2.18-.33,3-.08,1.39-.08,1.88c.82-1.14,1.83-2.46,3-3.93q4.92-5.58,8.2-5.58a1.62,1.62,0,0,1,.82.33,1.46,1.46,0,0,1,.28,1c0,.41-.09,1-.2,1.68a20.33,20.33,0,0,0-.29,3.11,4.31,4.31,0,0,0,.86,2.87,2.45,2.45,0,0,0,2.34,1.11,9.57,9.57,0,0,0,3-1.19l4.27-2.38a36.18,36.18,0,0,1,6-2.58,41,41,0,0,1,8.16-1.76,45.66,45.66,0,0,1,10.83.16q3,.42,6,.58a39.45,39.45,0,0,0,5.87-.13,25.26,25.26,0,0,0,5.65-1.23,20.55,20.55,0,0,0,5.42-2.83A.64.64,0,0,1,380.14,100.65Zm-67.9-5.49c.33-.39.74-.88,1.23-1.48s1.07-1.37,1.72-2.3q1.56-2.37,3.32-5.29c1.18-1.94,2.34-3.94,3.49-6q2-3.69,3.57-7c1.06-2.25,1.94-4.28,2.62-6.11a42.23,42.23,0,0,0,1.52-4.84,12,12,0,0,0,.41-3.32c-.11-.6-.26-1-.45-1a1.31,1.31,0,0,0-.45-.12h-.09a2.23,2.23,0,0,0-.73.2,4.16,4.16,0,0,0-1.23,1A21.88,21.88,0,0,0,325.4,61a30.59,30.59,0,0,0-2.25,3.9q-1.32,2.53-2.71,5.78t-2.74,7c-.91,2.49-1.78,5.08-2.63,7.79s-1.63,5.42-2.34,8.16Z" transform="translate(-129.9 -8.25)"/>
  </g>
</svg>
